<svg width="83" height="22" viewBox="0 0 83 22" fill="none" xmlns="http://www.w3.org/2000/svg">
<path d="M23.2878 17.1791C22.1652 17.1791 21.1621 16.9403 20.2783 16.4626L20.4754 14.7429C20.8217 14.9937 21.2277 15.2086 21.6935 15.3878C22.1593 15.555 22.6668 15.6386 23.2162 15.6386C23.7297 15.6386 24.1238 15.555 24.3985 15.3878C24.6731 15.2206 24.8105 14.9698 24.8105 14.6354C24.8105 14.2652 24.6612 13.9845 24.3626 13.7934C24.076 13.5904 23.6521 13.3993 23.0908 13.2202C22.5175 13.0291 22.0458 12.844 21.6756 12.6649C21.3054 12.4738 21.0008 12.2111 20.762 11.8767C20.5231 11.5423 20.4037 11.1124 20.4037 10.5869C20.4037 9.83452 20.6844 9.21352 21.2457 8.72387C21.8189 8.22229 22.6429 7.9715 23.7177 7.9715C24.6493 7.9715 25.4972 8.18049 26.2615 8.59848L26.0644 10.2465C25.6942 9.97186 25.324 9.76287 24.9538 9.61956C24.5955 9.46431 24.1954 9.38668 23.7536 9.38668C23.2878 9.38668 22.9236 9.47625 22.6608 9.65539C22.3981 9.83452 22.2667 10.0973 22.2667 10.4436C22.2667 10.6944 22.3324 10.8974 22.4638 11.0527C22.5952 11.2079 22.7862 11.3393 23.037 11.4468C23.2878 11.5542 23.6819 11.7035 24.2193 11.8946C24.9836 12.1573 25.5867 12.4798 26.0286 12.8619C26.4824 13.2441 26.7093 13.8054 26.7093 14.5458C26.7093 15.3101 26.4287 15.9431 25.8674 16.4447C25.318 16.9343 24.4582 17.1791 23.2878 17.1791ZM32.5128 17.1791C31.4977 17.1791 30.6259 16.9701 29.8974 16.5522C29.1809 16.1342 28.6375 15.5729 28.2673 14.8683C27.909 14.1637 27.7299 13.3755 27.7299 12.5037C27.7299 11.6796 27.897 10.9273 28.2314 10.2465C28.5778 9.55388 29.0734 9.00452 29.7183 8.59848C30.3751 8.19244 31.1514 7.98941 32.0471 7.98941C33.2174 7.98941 34.1489 8.33574 34.8416 9.02841C35.5342 9.70913 35.8806 10.6227 35.8806 11.7692C35.8806 12.0797 35.8448 12.4141 35.7731 12.7724H29.6466C29.766 13.7636 30.0945 14.4801 30.6319 14.922C31.1812 15.3639 31.8739 15.5848 32.7099 15.5848C33.6533 15.5848 34.5191 15.3818 35.3073 14.9758L35.4865 16.4984C34.5311 16.9522 33.5399 17.1791 32.5128 17.1791ZM33.9638 11.5005C33.9638 10.9392 33.8026 10.4794 33.4801 10.1211C33.1577 9.76287 32.674 9.58373 32.0291 9.58373C30.8229 9.58373 30.0646 10.2227 29.7541 11.5005H33.9638ZM39.7266 17.1791C38.9503 17.1791 38.3711 16.9701 37.9889 16.5522C37.6187 16.1342 37.4336 15.6027 37.4336 14.9578V3.56473H39.3146V14.0442C39.3146 14.5458 39.3444 14.9101 39.4041 15.137C39.4638 15.3519 39.5773 15.4952 39.7445 15.5669C39.9117 15.6266 40.1923 15.6565 40.5864 15.6565L40.3535 17.1791H39.7266ZM42.4157 9.63747H41.0005L41.2155 8.15064H42.4157V6.1443C42.4157 5.34416 42.6367 4.71718 43.0785 4.26337C43.5323 3.79761 44.1713 3.56473 44.9953 3.56473C45.4849 3.56473 45.9567 3.63041 46.4105 3.76178L46.1955 5.30236C45.8969 5.21876 45.6223 5.17696 45.3715 5.17696C44.643 5.17696 44.2787 5.57704 44.2787 6.37718V8.15064H46.4821V9.63747H44.2787V17H42.4157V9.63747ZM51.7872 17.1791C50.808 17.1791 49.972 16.9821 49.2793 16.588C48.5867 16.1819 48.0612 15.6326 47.7029 14.9399C47.3566 14.2473 47.1834 13.471 47.1834 12.6111C47.1834 11.7274 47.3566 10.9392 47.7029 10.2465C48.0492 9.54193 48.5747 8.98661 49.2793 8.58056C49.9839 8.17452 50.8498 7.9715 51.8768 7.9715C52.7964 7.9715 53.5965 8.15064 54.2772 8.50891L54.0623 10.0853C53.3935 9.75093 52.6889 9.58373 51.9485 9.58373C51.0408 9.58373 50.3362 9.85244 49.8346 10.3898C49.345 10.9153 49.1002 11.6438 49.1002 12.5753C49.1002 13.4829 49.345 14.2114 49.8346 14.7608C50.3362 15.3101 51.0349 15.5848 51.9305 15.5848C52.6829 15.5848 53.3995 15.3997 54.0802 15.0295L54.2952 16.5701C54.0085 16.7492 53.6383 16.8925 53.1845 17C52.7307 17.1194 52.2649 17.1791 51.7872 17.1791ZM57.826 17.1791C57.0497 17.1791 56.4108 16.9403 55.9092 16.4626C55.4196 15.9849 55.1747 15.3579 55.1747 14.5817C55.1747 13.8054 55.4434 13.1844 55.9809 12.7186C56.5302 12.2529 57.193 11.9245 57.9693 11.7334C58.7455 11.5304 59.5337 11.4229 60.3339 11.4109C60.3219 10.7302 60.1727 10.2645 59.886 10.0137C59.6114 9.75093 59.1635 9.61956 58.5425 9.61956C58.1604 9.61956 57.7782 9.67927 57.396 9.7987C57.0258 9.90618 56.6138 10.0973 56.16 10.3719L55.945 8.84927C56.3869 8.57459 56.8706 8.3656 57.396 8.22229C57.9335 8.06704 58.4828 7.98941 59.0441 7.98941C60.1428 7.98941 60.943 8.28797 61.4445 8.8851C61.9461 9.48222 62.1969 10.4973 62.1969 11.9304V13.9905C62.1969 14.4563 62.2148 14.8026 62.2507 15.0295C62.2984 15.2564 62.382 15.4176 62.5014 15.5132C62.6328 15.6087 62.8358 15.6565 63.1105 15.6565H63.3255L63.1105 17.1791H62.6985C62.0775 17.1791 61.6058 17.0836 61.2833 16.8925C60.9728 16.7014 60.722 16.4029 60.5309 15.9968C60.2085 16.367 59.8144 16.6596 59.3486 16.8746C58.8829 17.0776 58.3753 17.1791 57.826 17.1791ZM58.3992 15.7102C58.7455 15.7102 59.0919 15.6266 59.4382 15.4594C59.7965 15.2922 60.095 15.0594 60.3339 14.7608V12.6828C58.1842 12.7545 57.1094 13.3575 57.1094 14.4921C57.1094 15.3042 57.5394 15.7102 58.3992 15.7102ZM64.5845 8.15064H66.2325L66.3579 9.38668C67.1461 8.44323 67.9702 7.9715 68.83 7.9715C68.9614 7.9715 69.0987 7.98344 69.242 8.00733L69.0808 9.95992C68.8897 9.91215 68.6748 9.88826 68.4359 9.88826C68.0299 9.88826 67.6477 9.9838 67.2894 10.1749C66.9312 10.366 66.6744 10.5869 66.5192 10.8377V17H64.5845V8.15064ZM74.4105 17.1791C73.3954 17.1791 72.5236 16.9701 71.7952 16.5522C71.0786 16.1342 70.5352 15.5729 70.165 14.8683C69.8067 14.1637 69.6276 13.3755 69.6276 12.5037C69.6276 11.6796 69.7948 10.9273 70.1292 10.2465C70.4755 9.55388 70.9711 9.00452 71.616 8.59848C72.2728 8.19244 73.0491 7.98941 73.9448 7.98941C75.1152 7.98941 76.0467 8.33574 76.7393 9.02841C77.432 9.70913 77.7783 10.6227 77.7783 11.7692C77.7783 12.0797 77.7425 12.4141 77.6708 12.7724H71.5444C71.6638 13.7636 71.9922 14.4801 72.5296 14.922C73.079 15.3639 73.7716 15.5848 74.6076 15.5848C75.5511 15.5848 76.4169 15.3818 77.2051 14.9758L77.3842 16.4984C76.4288 16.9522 75.4376 17.1791 74.4105 17.1791ZM75.8616 11.5005C75.8616 10.9392 75.7003 10.4794 75.3779 10.1211C75.0554 9.76287 74.5718 9.58373 73.9269 9.58373C72.7207 9.58373 71.9623 10.2227 71.6518 11.5005H75.8616Z" fill="#161616"/>
<path d="M6.13017 4.63691L4.45387 8.03356L0.703389 8.58C0.030817 8.67748 -0.238725 9.50612 0.249018 9.98073L2.96241 12.6231L2.32064 16.3559C2.20512 17.0306 2.9162 17.536 3.51176 17.2204L6.86692 15.458L10.2221 17.2204C10.8176 17.5334 11.5287 17.0306 11.4132 16.3559L10.7714 12.6231L13.4848 9.98073C13.9726 9.50612 13.703 8.67748 13.0304 8.58L9.27996 8.03356L7.60366 4.63691C7.30332 4.03146 6.43308 4.02376 6.13017 4.63691Z" fill="#161616"/>
</svg>
